<svg width="60" height="60" viewBox="0 0 60 60" fill="none" xmlns="http://www.w3.org/2000/svg">
<g clip-path="url(#clip0_1_161)">
<path fill-rule="evenodd" clip-rule="evenodd" d="M59.1667 30.1191C59.1667 41.9273 49.5703 51.6211 37.7621 51.6211H18.7326C8.84334 51.6211 0.808594 43.4887 0.808594 33.5998C1.05389 22.0178 10.8128 14.1881 21.7576 15.8386C36.1743 0.230777 59.4084 11.8902 59.1667 30.1191ZM18.6999 18.8964C10.6325 18.8964 4.06159 25.4999 4.06159 33.5998C4.06159 41.6996 10.6325 48.3356 18.7325 48.3356H26.4093C24.9455 47.3923 23.5793 46.0911 22.3757 44.855H18.7324C12.4541 44.855 7.34707 39.7478 7.34707 33.4696C7.34707 27.1913 12.4542 22.1168 18.7324 22.1168C25.9098 22.4701 27.1409 26.3286 32.7851 31.6805C34.3593 33.1913 36.5557 31.0105 35.1273 29.4034C27.905 21.8002 26.0445 19.2934 18.6999 18.8964ZM55.8811 30.0215C55.7842 13.5846 36.4171 6.29519 25.4009 16.782C26.5069 17.2373 27.5479 17.7579 28.5237 18.4085C38.3065 10.7719 52.4581 17.4222 52.5956 30.0215C52.9688 42.1596 37.7631 50.3867 27.2551 40.496L18.5697 31.8107C17.0195 30.3277 14.7634 32.4597 16.2276 34.0877L24.9455 42.8382C35.8484 53.5985 55.2679 47.2822 55.8811 30.0215Z" fill="black"/>
</g>
<defs>
<clipPath id="clip0_1_161">
<rect width="58.3599" height="58.3599" fill="white" transform="translate(0.808594 0.907227)"/>
</clipPath>
</defs>
</svg>
