<svg width="36" height="35" viewBox="0 0 36 35" fill="none" xmlns="http://www.w3.org/2000/svg">
<path d="M9.12695 15.2425V12.4002C9.12695 12.232 9.12695 12.1647 9.35288 12.1647C11.2896 12.1647 12.8638 12.0531 13.6454 12.5011C14.4289 12.9474 14.4616 13.5637 14.4744 13.7479C14.4872 13.9321 14.4817 14.1959 14.1173 14.8388C13.7529 15.4816 12.1223 15.494 10.9453 15.494H9.38749C9.19619 15.494 9.12695 15.4267 9.12695 15.2425ZM14.4944 18.2212C14.6749 18.4451 14.8037 18.7041 14.8721 18.9806C14.9405 19.2572 14.947 19.5448 14.891 19.8239C14.835 20.1031 14.7179 20.3673 14.5476 20.5986C14.3773 20.8299 14.1579 21.0229 13.9041 21.1645C13.5314 21.3169 13.1315 21.3969 12.7271 21.4H9.36927C9.19619 21.4 9.12695 21.4 9.12695 21.1822V17.8174C9.12695 17.6492 9.12695 17.5819 9.35288 17.5819H11.5848C12.9695 17.5819 13.8349 17.465 14.4944 18.2212Z" fill="white"/>
<path d="M26.6835 16.6626C26.5907 16.4498 26.4498 16.2601 26.2713 16.1074C26.0928 15.9547 25.8812 15.8431 25.6523 15.7807C25.1947 15.6591 24.7158 15.6334 24.2472 15.7051C23.7785 15.7769 23.3309 15.9445 22.9339 16.1968C22.5383 16.5854 22.2826 17.088 22.2051 17.6295C22.2051 17.819 22.2051 17.8544 22.4365 17.8544H26.7546C26.9677 17.8544 26.9677 17.8544 26.9495 17.5941C26.9291 17.2687 26.8396 16.9511 26.6835 16.6626ZM26.6835 16.6626C26.5907 16.4498 26.448 16.2601 26.2695 16.1074C26.091 15.9547 25.8812 15.8431 25.6523 15.7807C25.1947 15.6591 24.7158 15.6334 24.2472 15.7051C23.7785 15.7769 23.3309 15.9445 22.9339 16.1968C22.5383 16.5854 22.2808 17.088 22.2033 17.6295C22.2033 17.819 22.2033 17.8544 22.4347 17.8544H26.7546C26.9677 17.8544 26.9677 17.8544 26.9495 17.5941C26.9291 17.2687 26.836 16.9511 26.6799 16.6626M28.7077 0H7.3908C5.50626 0 3.69892 0.727656 2.36635 2.02289C1.03378 3.31813 0.285156 5.07484 0.285156 6.90659V27.6263C0.285156 29.4581 1.03378 31.2148 2.36635 32.51C3.69892 33.8053 5.50626 34.5329 7.3908 34.5329H28.7077C30.5922 34.5329 32.3996 33.8053 33.7322 32.51C35.0647 31.2148 35.8134 29.4581 35.8134 27.6263V6.90659C35.8134 5.07484 35.0647 3.31813 33.7322 2.02289C32.3996 0.727656 30.5922 0 28.7077 0ZM21.7442 10.9974C21.7442 10.861 21.7442 10.8079 21.9045 10.8079H27.6601V12.2601C27.6601 12.2601 27.6656 12.3628 27.5708 12.3628H21.9938C21.7442 12.3628 21.7442 12.3628 21.7442 12.1219V10.9974ZM16.415 23.6896C14.2286 24.846 10.5537 24.3802 6.20106 24.3802V10.0659H13.1464C14.9228 10.0659 17.0362 10.498 17.6047 12.3274C17.8999 13.1264 17.8819 14.0031 17.5542 14.79C17.2265 15.5769 16.6121 16.219 15.8283 16.5935C16.5508 16.8534 17.1816 17.309 17.646 17.9065C18.1104 18.5039 18.389 19.2182 18.4488 19.9647C18.5086 20.7113 18.3471 21.4589 17.9834 22.119C17.6198 22.7791 17.0691 23.3241 16.3967 23.6896H16.415ZM29.6497 19.6147H22.544C22.3491 19.6147 22.1705 19.7174 22.2051 19.96C22.4183 20.9783 22.8975 22.0497 23.9834 22.2056C24.5568 22.3714 25.1708 22.3459 25.7275 22.1331C26.2842 21.9203 26.7516 21.5325 27.0552 21.0314C27.0552 21.0314 27.1445 20.927 27.1973 20.927H29.5076C29.5076 20.927 29.6497 20.927 29.6132 21.0474C29.3696 21.7179 29.009 22.3427 28.5474 22.8944C27.9299 23.4677 27.1849 23.895 26.37 24.143C25.5552 24.3911 24.6925 24.4533 23.8489 24.3249C23.0053 24.1964 22.2035 23.8807 21.5058 23.4023C20.8081 22.9239 20.2332 22.2956 19.8257 21.5663C19.575 21.0799 19.4188 20.5528 19.3647 20.0114C19.0478 18.6506 19.29 17.2233 20.0397 16.0335C20.7894 14.8437 21.9874 13.9854 23.3785 13.6414C27.4105 12.7949 29.9685 15.4885 29.9685 19.2871C29.9745 19.3315 29.9699 19.3766 29.9551 19.419C29.9402 19.4614 29.9156 19.4999 29.883 19.5316C29.8504 19.5632 29.8108 19.5872 29.7672 19.6016C29.7236 19.616 29.6771 19.6205 29.6314 19.6147H29.6497ZM25.6705 15.7807C25.2133 15.6574 24.734 15.632 24.2658 15.7063C23.7975 15.7771 23.3785 15.8639 22.9521 16.1968C22.5258 16.528 22.2999 17.0876 22.2234 17.6295C22.2234 17.819 22.2234 17.8544 22.4548 17.8544H26.7546C26.9677 17.8544 26.9677 17.8544 26.9495 17.5941C26.9291 17.2687 26.8396 16.9511 26.6835 16.6626C26.5907 16.4498 26.4498 16.2601 26.2713 16.1074C26.0928 15.9547 25.8812 15.8431 25.6523 15.7807H25.6705Z" fill="white"/>
</svg>
