<svg width="57" height="89" viewBox="0 0 57 89" fill="none" xmlns="http://www.w3.org/2000/svg">
<path d="M28.0728 88.2429C32.9828 88.2429 36.9631 85.8955 36.9631 82.9999C36.9631 80.1042 32.9828 77.7568 28.0728 77.7568C23.1627 77.7568 19.1824 80.1042 19.1824 82.9999C19.1824 85.8955 23.1627 88.2429 28.0728 88.2429Z" fill="#0A0A0A"/>
<path d="M28.0757 0C12.5745 0 0 11.5229 0 25.7299C0 29.4361 1.11773 33.3996 2.75756 36.8925C5.05921 41.8046 7.56675 45.4373 8.3021 46.7756C10.3464 50.4965 10.0522 54.4159 10.6185 56.872C11.6847 61.4605 14.8761 63.1224 28.0683 63.1224C41.2605 63.1224 44.0989 61.5414 45.2828 57.3132C46.0917 54.438 45.3049 51.298 47.3418 47.5845C48.0772 46.2462 51.07 41.812 53.379 36.8925C55.0189 33.3996 56.1366 29.4361 56.1366 25.7299C56.1513 11.5229 43.5768 0 28.0757 0Z" fill="#D4FFCE"/>
<path d="M28.0777 63.6748C36.988 63.6748 44.2112 62.2064 44.2112 60.3951C44.2112 58.5838 36.988 57.1155 28.0777 57.1155C19.1673 57.1155 11.9441 58.5838 11.9441 60.3951C11.9441 62.2064 19.1673 63.6748 28.0777 63.6748Z" fill="#B26500"/>
<path d="M28.0777 63.6748C36.988 63.6748 44.2112 62.2064 44.2112 60.3951C44.2112 58.5838 36.988 57.1155 28.0777 57.1155C19.1673 57.1155 11.9441 58.5838 11.9441 60.3951C11.9441 62.2064 19.1673 63.6748 28.0777 63.6748Z" fill="#4CB544"/>
<path d="M28.0747 61.9085C34.5686 61.9085 39.8329 61.2303 39.8329 60.3937C39.8329 59.5571 34.5686 58.8789 28.0747 58.8789C21.5808 58.8789 16.3164 59.5571 16.3164 60.3937C16.3164 61.2303 21.5808 61.9085 28.0747 61.9085Z" fill="#D4FFCE"/>
<path d="M20.2056 38.8046C19.7497 39.9518 18.5658 42.3122 19.1835 43.3711C20.6174 45.8346 24.0368 46.717 24.0368 48.9819C24.0368 52.438 21.5219 63.6374 21.5219 63.6374M35.4494 38.3928C35.4494 38.3928 37.0966 41.9225 36.398 43.5035C35.8759 44.6801 32.736 46.5773 32.3315 46.8935C30.4564 48.3642 32.9492 63.6447 32.9492 63.6447" stroke="#4CB544" stroke-width="1.47084" stroke-miterlimit="10"/>
<g filter="url(#filter0_d_1_204)">
<path d="M20.2076 38.805C22.7372 33.8046 24.0388 22.392 20.8253 22.9729C15.4058 23.9509 22.0827 42.7023 25.3697 40.5477C28.6568 38.3932 32.7306 23.0096 27.7302 22.9508C22.7298 22.892 28.0685 42.5552 31.4658 40.3713C34.1498 38.6432 40.7018 22.9729 35.319 22.9729C30.7378 22.9729 35.4587 38.3932 35.4587 38.3932" stroke="white" stroke-width="1.47084" stroke-miterlimit="10" shape-rendering="crispEdges"/>
</g>
<path d="M44.1753 61.0798C44.1753 61.0798 39.9397 63.1241 28.0785 63.1241C16.2173 63.1241 11.9817 61.0798 11.9817 61.0798C11.9817 61.0798 11.717 64.8595 12.592 66.5729C13.6436 68.6319 14.4525 69.3452 14.4525 69.3452L14.8937 71.4409L14.7172 71.9924C14.4893 72.7131 14.651 73.5073 15.1584 74.0735L15.5408 74.5L15.9673 76.5148L15.8202 76.9193C15.5408 77.6914 15.732 78.5518 16.3056 79.14L16.585 79.4268L16.9306 81.074C16.9306 81.074 18.6807 84.8096 28.0785 84.8096C37.4763 84.8096 39.2264 81.074 39.2264 81.074L39.2558 80.9343L39.447 80.7431C39.8294 80.3681 39.9544 79.8092 39.7706 79.3092L39.6603 79.0224L40.1162 76.8457L40.9177 76.0001C41.3148 75.5809 41.4031 74.9632 41.1457 74.4485L40.778 73.7205L41.2413 71.5365L41.5354 71.3086C41.9693 70.8306 41.9766 70.1099 41.7854 69.6172C41.6384 69.2275 41.756 68.7863 42.0575 68.4995C42.5208 68.0583 43.1164 67.3891 43.5576 66.5582C44.4621 64.8742 44.1753 61.0798 44.1753 61.0798Z" fill="#0A0A0A"/>
<path d="M14.4492 69.3461L14.8463 71.4566C19.126 71.4345 24.8397 71.6478 35.8038 69.905C37.7819 69.4564 40.157 68.5667 37.5318 68.9343C37.5318 68.927 27.4649 69.8903 14.4492 69.3461ZM15.9199 76.5305C20.6556 76.4496 30.3328 75.979 40.7306 73.7215L41.1939 71.5375C30.3181 74.0083 20.0894 74.4495 15.4934 74.5083L15.9199 76.5305ZM40.0688 76.8394C30.4431 78.9277 21.435 79.4646 16.5597 79.5822L16.8759 81.0823C16.8759 81.0823 17.0303 85.7371 28.0238 85.7371C39.0173 85.7371 39.1717 81.0823 39.1717 81.0823C39.1717 81.0823 34.4801 82.4207 28.7077 81.7662C28.6468 81.7667 28.5865 81.7552 28.5301 81.7323C28.4737 81.7095 28.4224 81.6758 28.379 81.6331C28.2914 81.5469 28.2417 81.4295 28.2407 81.3066C28.2397 81.1837 28.2876 81.0655 28.3738 80.9779C28.46 80.8904 28.5774 80.8406 28.7003 80.8397C32.1491 80.3837 36.267 79.7072 39.6129 79.016L40.0688 76.8394Z" fill="#4CB544"/>
<path d="M12.0303 61.0798C12.0303 61.0798 16.7806 63.1241 28.0315 63.1241C39.2823 63.1241 44.1209 61.0798 44.1209 61.0798" stroke="#0A0A0A" stroke-width="2.93947" stroke-miterlimit="10" stroke-linecap="round"/>
<path d="M17.6945 4.64761C20.5697 3.94167 23.5773 4.29464 25.6363 6.79483C26.2172 7.50077 26.6658 8.33907 26.7687 9.2509C26.9746 11.0084 25.8863 12.6703 24.5921 13.891C20.9006 17.3765 15.6576 19.0678 13.2751 23.877C12.7162 25.0021 12.275 26.2154 11.422 27.1346C10.569 28.0538 9.14974 28.6127 8.03936 28.0244C7.45108 27.7155 7.04664 27.1346 6.71573 26.5537C4.62734 22.8328 4.78176 18.0898 6.62014 14.2366C8.64235 10.0157 13.0765 5.78005 17.6945 4.64761Z" fill="white"/>
<path d="M15.1716 64.659C14.5245 64.3648 14.7819 63.3941 15.4878 63.4456C17.8556 63.6295 21.8854 63.8574 27.2167 63.8574C32.8347 63.8574 37.7763 63.4383 40.6588 63.1294C41.3721 63.0559 41.6442 64.0339 40.9898 64.3354C38.769 65.3796 34.7025 66.5709 27.7314 66.5709C20.9294 66.5709 17.1791 65.5634 15.1716 64.659Z" fill="#D4FFCE"/>
<path d="M19.2082 72.089C18.7155 72.2655 18.208 72.5081 17.958 72.9641C17.8697 73.1333 17.8183 73.3245 17.855 73.5157C17.9139 73.7951 18.1713 73.9937 18.4287 74.1187C18.9434 74.3688 19.5244 74.4349 20.0907 74.4423C21.26 74.457 22.422 74.2364 23.5766 74.0158C23.9222 73.9496 24.2752 73.8834 24.5841 73.7142C24.893 73.5451 25.1577 73.2583 25.2092 72.9126C25.2828 72.4493 24.9518 72.0007 24.5473 71.7801C23.15 71.0079 20.6202 71.5815 19.2082 72.089ZM20.304 76.9354C19.8112 77.1119 19.3038 77.3546 19.0538 77.8105C18.9655 77.9797 18.914 78.1709 18.9508 78.3621C19.0096 78.6415 19.267 78.8401 19.5244 78.9651C20.0392 79.2152 20.6202 79.2814 21.1865 79.2887C22.3558 79.3034 23.5178 79.0828 24.6724 78.8622C25.018 78.796 25.371 78.7298 25.6799 78.5607C25.9888 78.3915 26.2535 78.1047 26.305 77.759C26.3785 77.2957 26.0476 76.8471 25.6431 76.6265C24.2458 75.8617 21.7086 76.4353 20.304 76.9354Z" fill="#0A0A0A"/>
<path d="M17.7887 58.9772C18.458 59.0433 19.164 58.9845 19.7302 58.6242C20.2965 58.2638 20.6569 57.5284 20.4289 56.8959C20.3112 56.565 20.0538 56.3002 19.8038 56.0502C19.2522 55.506 18.7007 54.9618 18.1564 54.4176C17.546 53.8072 16.9356 53.2041 16.2738 52.6525C15.2515 51.7995 13.8763 50.9979 12.5305 51.623C11.3832 52.1525 11.1111 53.1968 11.6186 54.2925C12.6996 56.5944 15.2148 58.7124 17.7887 58.9772Z" fill="white"/>
<defs>
<filter id="filter0_d_1_204" x="14.0408" y="22.2153" width="28.0754" height="27.2407" filterUnits="userSpaceOnUse" color-interpolation-filters="sRGB">
<feFlood flood-opacity="0" result="BackgroundImageFix"/>
<feColorMatrix in="SourceAlpha" type="matrix" values="0 0 0 0 0 0 0 0 0 0 0 0 0 0 0 0 0 0 127 0" result="hardAlpha"/>
<feOffset dy="4"/>
<feGaussianBlur stdDeviation="2"/>
<feComposite in2="hardAlpha" operator="out"/>
<feColorMatrix type="matrix" values="0 0 0 0 1 0 0 0 0 1 0 0 0 0 1 0 0 0 1 0"/>
<feBlend mode="normal" in2="BackgroundImageFix" result="effect1_dropShadow_1_204"/>
<feBlend mode="normal" in="SourceGraphic" in2="effect1_dropShadow_1_204" result="shape"/>
</filter>
</defs>
</svg>
