<svg width="39" height="60" viewBox="0 0 39 60" fill="none" xmlns="http://www.w3.org/2000/svg">
<path d="M9.49631 59.7075C14.7524 59.7075 18.9926 55.4672 18.9926 50.2111V40.7148H9.49631C4.24021 40.7148 0 44.9551 0 50.2111C0 55.4672 4.24021 59.7075 9.49631 59.7075Z" fill="black"/>
<path d="M0 30.219C0 24.9629 4.24021 20.7227 9.49631 20.7227H18.9926V39.7153H9.49631C4.24021 39.7153 0 35.4751 0 30.219Z" fill="black"/>
<path d="M0 10.2258C0 4.9697 4.24021 0.729492 9.49631 0.729492H18.9926V19.7221H9.49631C4.24021 19.7221 0 15.4819 0 10.2258Z" fill="black"/>
<path d="M19.9922 0.729492H29.4885C34.7446 0.729492 38.9848 4.9697 38.9848 10.2258C38.9848 15.4819 34.7446 19.7221 29.4885 19.7221H19.9922V0.729492Z" fill="black"/>
<path d="M38.9848 30.219C38.9848 35.4751 34.7446 39.7153 29.4885 39.7153C24.2324 39.7153 19.9922 35.4751 19.9922 30.219C19.9922 24.9629 24.2324 20.7227 29.4885 20.7227C34.7446 20.7227 38.9848 24.9629 38.9848 30.219Z" fill="black"/>
</svg>
