<svg width="36" height="34" viewBox="0 0 36 34" fill="none" xmlns="http://www.w3.org/2000/svg">
<path d="M0.666016 2.41C0.666016 1.07882 1.80406 0 3.20822 0H32.741C34.1452 0 35.2832 1.07882 35.2832 2.41V31.2375C35.2832 32.5686 34.1452 33.6475 32.741 33.6475H3.20822C1.80406 33.6475 0.666016 32.5686 0.666016 31.2375V2.41ZM11.3606 28.1671V12.9732H6.16583V28.1671H11.3606ZM8.76428 10.8976C10.5752 10.8976 11.7024 9.73253 11.7024 8.27307C11.67 6.78207 10.5774 5.64857 8.7989 5.64857C7.02044 5.64857 5.8586 6.78417 5.8586 8.27307C5.8586 9.73253 6.98582 10.8976 8.72966 10.8976H8.76428ZM19.3831 28.1671V19.6817C19.3831 19.2274 19.4177 18.7732 19.5562 18.4493C19.9305 17.5429 20.7851 16.6029 22.2217 16.6029C24.1019 16.6029 24.8526 17.9951 24.8526 20.0392V28.1671H30.0474V19.4524C30.0474 14.7839 27.4857 12.6136 24.0673 12.6136C21.3109 12.6136 20.0755 14.0857 19.3831 15.1224V15.175H19.3485L19.3831 15.1224V12.9732H14.1905C14.2554 14.399 14.1905 28.1671 14.1905 28.1671H19.3831Z" fill="white"/>
</svg>
