<svg width="67" height="67" viewBox="0 0 67 67" fill="none" xmlns="http://www.w3.org/2000/svg">
<rect width="67" height="67" rx="12" fill="#0A0A0A"/>
<mask id="path-2-inside-1_1_364" fill="white">
<path d="M33.7984 53.4331C37.2979 53.2836 40.7023 52.2491 43.6933 50.4262C46.6843 48.6034 49.1642 46.0517 50.901 43.0099C52.6378 39.9682 53.5748 36.5356 53.6243 33.0332C53.6739 29.5309 52.8345 26.0732 51.1845 22.9834C49.5345 19.8937 47.1278 17.2729 44.1896 15.3661C41.2514 13.4593 37.8776 12.3288 34.3838 12.0803C30.8899 11.8318 27.3901 12.4735 24.2116 13.9453C21.0331 15.4171 18.2798 17.6709 16.2091 20.496L22.7777 25.3104C24.0342 23.5962 25.7049 22.2285 27.6336 21.3355C29.5623 20.4424 31.686 20.053 33.806 20.2038C35.9261 20.3546 37.9733 21.0406 39.7562 22.1976C41.5391 23.3546 42.9994 24.9449 44.0006 26.8198C45.0018 28.6946 45.5112 30.7927 45.4811 32.918C45.451 35.0432 44.8825 37.126 43.8286 38.9718C42.7747 40.8175 41.27 42.3659 39.455 43.472C37.6401 44.5781 35.5743 45.2058 33.4508 45.2965L33.7984 53.4331Z"/>
</mask>
<path d="M33.7984 53.4331C37.2979 53.2836 40.7023 52.2491 43.6933 50.4262C46.6843 48.6034 49.1642 46.0517 50.901 43.0099C52.6378 39.9682 53.5748 36.5356 53.6243 33.0332C53.6739 29.5309 52.8345 26.0732 51.1845 22.9834C49.5345 19.8937 47.1278 17.2729 44.1896 15.3661C41.2514 13.4593 37.8776 12.3288 34.3838 12.0803C30.8899 11.8318 27.3901 12.4735 24.2116 13.9453C21.0331 15.4171 18.2798 17.6709 16.2091 20.496L22.7777 25.3104C24.0342 23.5962 25.7049 22.2285 27.6336 21.3355C29.5623 20.4424 31.686 20.053 33.806 20.2038C35.9261 20.3546 37.9733 21.0406 39.7562 22.1976C41.5391 23.3546 42.9994 24.9449 44.0006 26.8198C45.0018 28.6946 45.5112 30.7927 45.4811 32.918C45.451 35.0432 44.8825 37.126 43.8286 38.9718C42.7747 40.8175 41.27 42.3659 39.455 43.472C37.6401 44.5781 35.5743 45.2058 33.4508 45.2965L33.7984 53.4331Z" fill="#D4FFCE" stroke="black" stroke-width="2" mask="url(#path-2-inside-1_1_364)"/>
<mask id="path-3-inside-2_1_364" fill="white">
<path d="M32.0298 53.4331C28.5302 53.2836 25.1258 52.2491 22.1348 50.4262C19.1438 48.6034 16.664 46.0517 14.9272 43.0099C13.1904 39.9682 12.2534 36.5356 12.2038 33.0332C12.1542 29.5309 12.9937 26.0732 14.6437 22.9834C16.2937 19.8937 18.7003 17.2729 21.6385 15.3661C24.5767 13.4593 27.9505 12.3288 31.4444 12.0803C34.9382 11.8318 38.4381 12.4735 41.6165 13.9453C44.795 15.4171 47.5483 17.6709 49.619 20.496L43.0504 25.3104C41.7939 23.5962 40.1232 22.2285 38.1945 21.3355C36.2658 20.4424 34.1422 20.053 32.0221 20.2038C29.902 20.3546 27.8548 21.0406 26.0719 22.1976C24.289 23.3546 22.8287 24.9449 21.8275 26.8198C20.8263 28.6946 20.3169 30.7927 20.347 32.918C20.3771 35.0432 20.9456 37.126 21.9995 38.9718C23.0534 40.8175 24.5582 42.3659 26.3731 43.472C28.188 44.5781 30.2538 45.2058 32.3773 45.2965L32.0298 53.4331Z"/>
</mask>
<path d="M32.0298 53.4331C28.5302 53.2836 25.1258 52.2491 22.1348 50.4262C19.1438 48.6034 16.664 46.0517 14.9272 43.0099C13.1904 39.9682 12.2534 36.5356 12.2038 33.0332C12.1542 29.5309 12.9937 26.0732 14.6437 22.9834C16.2937 19.8937 18.7003 17.2729 21.6385 15.3661C24.5767 13.4593 27.9505 12.3288 31.4444 12.0803C34.9382 11.8318 38.4381 12.4735 41.6165 13.9453C44.795 15.4171 47.5483 17.6709 49.619 20.496L43.0504 25.3104C41.7939 23.5962 40.1232 22.2285 38.1945 21.3355C36.2658 20.4424 34.1422 20.053 32.0221 20.2038C29.902 20.3546 27.8548 21.0406 26.0719 22.1976C24.289 23.3546 22.8287 24.9449 21.8275 26.8198C20.8263 28.6946 20.3169 30.7927 20.347 32.918C20.3771 35.0432 20.9456 37.126 21.9995 38.9718C23.0534 40.8175 24.5582 42.3659 26.3731 43.472C28.188 44.5781 30.2538 45.2058 32.3773 45.2965L32.0298 53.4331Z" fill="#D4FFCE" stroke="black" stroke-width="2" mask="url(#path-3-inside-2_1_364)"/>
<mask id="path-4-inside-3_1_364" fill="white">
<path d="M52.4486 25.8456C51.0211 21.8028 48.3743 18.3026 44.8732 15.8279C41.3721 13.3533 37.1893 12.0261 32.902 12.0295C28.6146 12.0328 24.4339 13.3666 20.9367 15.8468C17.4396 18.327 14.7982 21.8314 13.3772 25.8764L21.0608 28.5757C21.9231 26.1212 23.5259 23.9948 25.6479 22.4898C27.77 20.9849 30.3068 20.1755 32.9084 20.1735C35.51 20.1714 38.048 20.9768 40.1725 22.4784C42.2969 23.98 43.903 26.1039 44.7692 28.557L52.4486 25.8456Z"/>
</mask>
<path d="M52.4486 25.8456C51.0211 21.8028 48.3743 18.3026 44.8732 15.8279C41.3721 13.3533 37.1893 12.0261 32.902 12.0295C28.6146 12.0328 24.4339 13.3666 20.9367 15.8468C17.4396 18.327 14.7982 21.8314 13.3772 25.8764L21.0608 28.5757C21.9231 26.1212 23.5259 23.9948 25.6479 22.4898C27.77 20.9849 30.3068 20.1755 32.9084 20.1735C35.51 20.1714 38.048 20.9768 40.1725 22.4784C42.2969 23.98 43.903 26.1039 44.7692 28.557L52.4486 25.8456Z" fill="#4BB543" stroke="black" stroke-width="2" mask="url(#path-4-inside-3_1_364)"/>
<path d="M28.5 31.7917C28.5 30.526 29.526 29.5 30.7917 29.5H35.2083C36.474 29.5 37.5 30.526 37.5 31.7917V66.5H28.5V31.7917Z" fill="#4BB543" stroke="black"/>
</svg>
