<svg width="38" height="33" viewBox="0 0 38 33" fill="none" xmlns="http://www.w3.org/2000/svg">
<path d="M2.83333 0H35.8333C36.3196 0 36.7859 0.193154 37.1297 0.536971C37.4735 0.880787 37.6667 1.3471 37.6667 1.83333V31.1667C37.6667 31.6529 37.4735 32.1192 37.1297 32.463C36.7859 32.8068 36.3196 33 35.8333 33H2.83333C2.3471 33 1.88079 32.8068 1.53697 32.463C1.19315 32.1192 1 31.6529 1 31.1667V1.83333C1 1.3471 1.19315 0.880787 1.53697 0.536971C1.88079 0.193154 2.3471 0 2.83333 0ZM19.4433 15.9188L7.688 5.93633L5.31383 8.73033L19.4672 20.7478L33.3657 8.72117L30.9677 5.94733L19.4433 15.9188Z" fill="white"/>
</svg>
