<svg width="24" height="41" viewBox="0 0 24 41" fill="none" xmlns="http://www.w3.org/2000/svg">
<path d="M14.2562 0.324873C13.903 0.646626 11.1556 6.23374 11.1556 6.23374L9.11145 14.6831L17.0658 13.9357C17.0658 13.9357 23.6823 1.327 23.8164 1.03541C24.0552 0.505859 24.1828 0.288005 23.2702 0.288005C22.3577 0.284654 14.5866 0.023229 14.2562 0.324873Z" fill="#176CC7"/>
<path d="M18.3733 13.4122C17.9775 13.1943 6.32082 13.0066 6.04608 13.4122C5.79751 13.7809 5.93815 15.7147 6.033 15.946C6.20308 16.3482 9.96763 18.1011 9.96763 18.1011L9.89568 18.8988C9.89568 18.8988 10.2031 18.9792 12.3912 18.9792C14.5793 18.9792 15.011 18.8652 15.011 18.8652L15.0176 18.1447C15.0176 18.1447 18.406 16.4554 18.5761 16.2208C18.72 16.0264 18.769 13.63 18.3733 13.4122ZM14.9031 16.4689C14.9031 16.4689 15.011 15.9762 14.7854 15.8622C14.5597 15.7449 10.6872 15.7985 10.3797 15.8153C10.0723 15.832 10.0723 16.3951 10.0723 16.3951L7.63237 15.1081L7.58658 14.6288L16.8426 14.6959L16.8099 15.1483L14.9031 16.4689Z" fill="#F79429"/>
<path d="M11.0422 16.2944C10.7347 16.2944 10.5581 16.6229 10.5581 17.1893C10.5581 17.7189 10.7347 18.1646 11.1239 18.1311C11.4445 18.1043 11.5557 17.6016 11.5262 17.1558C11.4968 16.6229 11.4314 16.2944 11.0422 16.2944Z" fill="#FDFFFF"/>
<path d="M1.24744 29.7678C1.24744 37.7982 8.34809 41.1398 13.0611 40.9957C18.5526 40.8281 24.4595 36.5581 23.9722 28.8964C23.5143 21.7072 17.6074 18.4092 12.4463 18.4461C6.44782 18.493 1.24744 22.7529 1.24744 29.7678Z" fill="#F79429"/>
<path d="M12.8115 39.7825C12.7297 39.7825 12.6447 39.7825 12.5629 39.7791C10.1099 39.6953 7.68633 38.6362 5.91362 36.8766C4.01662 34.993 2.97654 32.4458 2.98962 29.7076C3.01906 23.0211 8.72313 19.9209 12.5924 19.9209H12.6251C17.868 19.9444 22.1722 24.1205 22.2932 29.7813C22.3455 32.3017 21.5606 34.8087 19.5851 36.7995C17.7404 38.6496 15.0715 39.7825 12.8115 39.7825ZM12.5858 21.0336C9.11562 21.0336 3.98391 23.9428 3.97083 29.7076C3.96102 34.0177 7.21862 38.4485 12.6447 38.6362C14.7118 38.7033 17.0438 37.919 18.7609 36.1896C20.5467 34.3898 21.348 32.0436 21.312 29.7981C21.2335 24.9282 17.3479 21.0537 12.6316 21.0336C12.6218 21.0269 12.5956 21.0336 12.5858 21.0336Z" fill="#D25116"/>
<path d="M10.6598 19.5058C10.4341 19.1874 8.12177 19.2779 5.63278 21.4732C3.16014 23.6551 2.79055 26.0682 3.23536 26.1956C3.74232 26.3397 4.36048 24.007 6.49624 22.0463C8.45865 20.2532 11.1079 20.1393 10.6598 19.5058ZM20.5994 28.2769C19.8112 28.3909 20.6289 30.8108 18.8006 33.5188C17.2143 35.8683 15.4154 36.7196 15.6247 37.2358C15.906 37.9262 18.7875 36.2068 20.1219 33.4049C21.3288 30.8677 21.1849 28.1898 20.5994 28.2769Z" fill="#FEFFFA"/>
<path d="M0.00397219 0.149809C-0.202081 0.344202 7.677 14.7226 7.677 14.7226C7.677 14.7226 8.99835 14.8968 11.9485 14.9237C14.8987 14.9505 16.3607 14.7494 16.3607 14.7494C16.3607 14.7494 10.2347 0.293928 9.86836 0.149809C9.68847 0.0760742 7.26162 0.0492614 4.89038 0.0224486C2.51586 -0.00771581 0.200213 -0.0378802 0.00397219 0.149809Z" fill="#2E9DF4"/>
<path d="M16.1726 26.9591C15.7932 23.5907 11.9665 23.3092 10.3802 24.6029C8.83642 25.8631 8.9836 27.6193 10.0662 27.8238C10.9198 27.9846 11.1422 27.2909 11.3908 26.9725C11.9534 26.2586 12.8495 26.1915 13.435 26.7647C14.0989 27.4182 13.6901 28.9801 12.6926 29.0438C11.9501 29.0907 11.574 29.0505 11.4791 29.1812C11.345 29.3655 11.3647 30.8167 11.502 30.9776C11.659 31.162 12.287 31.048 12.8267 31.0681C13.5691 31.0983 14.3573 32.2244 13.8373 33.069C13.2976 33.9438 11.8618 33.5517 11.345 33.0221C10.6615 32.3216 9.97788 32.7238 9.74894 32.9986C9.38916 33.4344 9.00649 34.4264 10.3344 35.3917C11.659 36.3569 15.6787 36.5413 16.4898 33.5517C17.1963 30.9408 15.5479 29.8682 15.5479 29.8682C15.5479 29.8682 16.3884 28.8795 16.1726 26.9591Z" fill="#D25116"/>
</svg>
