<svg width="115" height="64" viewBox="0 0 115 64" fill="none" xmlns="http://www.w3.org/2000/svg">
<g clip-path="url(#clip0_1_171)">
<path d="M17.7487 63.201C17.7487 61.7458 17.6334 60.5266 17.8012 59.3494C17.8719 58.8486 18.4566 58.3112 18.9364 58.0096C21.262 56.5335 23.7869 55.3537 25.9552 53.6599C32.9714 48.1749 37.1297 40.9543 37.3578 31.5732C37.4207 28.912 36.4401 28.2434 34.2063 29.2843C27.7486 32.2785 20.8032 30.5218 17.0985 24.9582C13.0582 18.8859 13.6271 10.8 18.4697 5.49852C24.6521 -1.27119 34.8303 -1.47569 41.8491 4.99512C46.052 8.87027 48.0498 13.8728 48.548 19.5649C50.2181 38.6287 40.6561 54.3442 23.2494 61.2477C21.5269 61.9294 19.7623 62.4904 17.7487 63.201Z" fill="#E5E5E8"/>
</g>
<g clip-path="url(#clip1_1_171)">
<path d="M68.8181 63.2012C68.8181 61.7461 68.7027 60.5269 68.8705 59.3497C68.9413 58.8489 69.526 58.3114 70.0058 58.0099C72.3314 56.5338 74.8563 55.3539 77.0246 53.6602C84.0407 48.1752 88.199 40.9545 88.4271 31.5734C88.4901 28.9122 87.5095 28.2436 85.2756 29.2845C78.8179 32.2787 71.8725 30.522 68.1678 24.9584C64.1275 18.8861 64.6964 10.8002 69.5391 5.49876C75.7215 -1.27094 85.8996 -1.47545 92.9184 4.99536C97.1213 8.87051 99.1192 13.8731 99.6173 19.5652C101.287 38.6289 91.7255 54.3445 74.3188 61.2479C72.5962 61.9296 70.8317 62.4907 68.8181 63.2012Z" fill="#E5E5E8"/>
</g>
<defs>
<clipPath id="clip0_1_171">
<rect width="62.9252" height="62.9252" fill="white" transform="translate(0.110352 0.274902)"/>
</clipPath>
<clipPath id="clip1_1_171">
<rect width="62.9252" height="62.9252" fill="white" transform="translate(51.1802 0.275146)"/>
</clipPath>
</defs>
</svg>
