<svg width="114" height="63" viewBox="0 0 114 63" fill="none" xmlns="http://www.w3.org/2000/svg">
<g clip-path="url(#clip0_1_176)">
<path d="M96.3575 -0.00077849C96.3575 1.45437 96.4729 2.67355 96.3051 3.85077C96.2343 4.35155 95.6496 4.88904 95.1698 5.19056C92.8442 6.66667 90.3193 7.84652 88.151 9.54026C81.1348 15.0252 76.9765 22.2459 76.7484 31.627C76.6855 34.2882 77.6661 34.9568 79.8999 33.9159C86.3576 30.9217 93.303 32.6784 97.0077 38.242C101.048 44.3143 100.479 52.4002 95.6365 57.7017C89.4541 64.4714 79.2759 64.6759 72.2571 58.2051C68.0542 54.3299 66.0564 49.3274 65.5582 43.6353C63.8881 24.5715 73.4501 8.85595 90.8568 1.95253C92.5794 1.27084 94.3439 0.709754 96.3575 -0.00077849Z" fill="#E5E5E8"/>
</g>
<g clip-path="url(#clip1_1_176)">
<path d="M45.2886 -0.00102263C45.2886 1.45412 45.404 2.6733 45.2362 3.85053C45.1654 4.35131 44.5807 4.88879 44.1009 5.19031C41.7753 6.66643 39.2504 7.84628 37.0821 9.54002C30.066 15.025 25.9077 22.2457 25.6796 31.6268C25.6166 34.288 26.5972 34.9566 28.8311 33.9157C35.2888 30.9215 42.2341 32.6782 45.9389 38.2418C49.9792 44.3141 49.4102 52.4 44.5676 57.7014C38.3852 64.4711 28.2071 64.6756 21.1883 58.2048C16.9854 54.3297 14.9875 49.3271 14.4894 43.635C12.8192 24.5713 22.3812 8.85571 39.7879 1.95228C41.5105 1.27059 43.275 0.70951 45.2886 -0.00102263Z" fill="#E5E5E8"/>
</g>
<defs>
<clipPath id="clip0_1_176">
<rect width="62.9252" height="62.9252" fill="white" transform="translate(113.995 62.9253) rotate(-180)"/>
</clipPath>
<clipPath id="clip1_1_176">
<rect width="62.9252" height="62.9252" fill="white" transform="translate(62.9253 62.925) rotate(-180)"/>
</clipPath>
</defs>
</svg>
